<svg width="20" height="26" viewBox="0 0 20 26" fill="none" xmlns="http://www.w3.org/2000/svg">
<path d="M10.007 17.0038C12.7883 17.0038 14.6611 15.185 14.6611 12.585V4.41878C14.6611 1.80657 12.7883 0 10.007 0C7.21174 0 5.33892 1.80657 5.33892 4.41878V12.585C5.33892 15.185 7.21174 17.0038 10.007 17.0038ZM0 12.7803C0 17.5653 3.61985 20.9221 8.94479 21.3127V24.1568H3.75961C3.17261 24.1568 2.69741 24.5718 2.69741 25.0845C2.69741 25.5972 3.17261 26 3.75961 26H16.2404C16.8274 26 17.3026 25.5972 17.3026 25.0845C17.3026 24.5718 16.8274 24.1568 16.2404 24.1568H11.0552V21.3127C16.3941 20.9221 20 17.5653 20 12.7803V10.3023C20 9.78967 19.5388 9.38685 18.9518 9.38685C18.3648 9.38685 17.8896 9.78967 17.8896 10.3023V12.707C17.8896 16.8695 14.7869 19.6282 10.007 19.6282C5.21314 19.6282 2.11041 16.8695 2.11041 12.707V10.3023C2.11041 9.78967 1.6492 9.38685 1.04822 9.38685C0.461216 9.38685 0 9.78967 0 10.3023V12.7803Z" fill="#D9D9D9"/>
</svg>
